<?xml version="1.0" encoding="utf-8"?>
<!-- Generator: Adobe Illustrator 25.2.3, SVG Export Plug-In . SVG Version: 6.00 Build 0)  -->
<svg version="1.1" id="Layer_2" xmlns="http://www.w3.org/2000/svg" xmlns:xlink="http://www.w3.org/1999/xlink" x="0px" y="0px"
	 viewBox="0 0 20 20" style="enable-background:new 0 0 20 20;" xml:space="preserve">
<style type="text/css">
	.st0{fill:#2f5acf;}
	.st1{fill:#D9D9D8;}
</style>
<path class="st0" d="M9.3,1L7.4,6.7C7.3,7,7.1,7.2,6.7,7.2h-6c-0.7,0-1,0.9-0.4,1.3L5.2,12c0.3,0.2,0.4,0.5,0.3,0.8l-1.9,5.7
	c-0.2,0.7,0.6,1.2,1.1,0.8l4.9-3.5c0.1-0.1,0.3-0.1,0.4-0.1V0.5C9.7,0.5,9.4,0.6,9.3,1z"/>
<path class="st1" d="M10.7,1l1.9,5.7c0.1,0.3,0.4,0.5,0.7,0.5h6c0.7,0,1,0.9,0.4,1.3L14.8,12c-0.3,0.2-0.4,0.5-0.3,0.8l1.9,5.7
	c0.2,0.7-0.6,1.2-1.1,0.8l-4.9-3.5c-0.1-0.1-0.3-0.1-0.4-0.1V0.5C10.3,0.5,10.6,0.6,10.7,1z"/>
</svg>
