<?xml version="1.0" encoding="utf-8"?>
<!-- Generator: Adobe Illustrator 25.2.3, SVG Export Plug-In . SVG Version: 6.00 Build 0)  -->
<svg version="1.1" id="Layer_1" xmlns="http://www.w3.org/2000/svg" xmlns:xlink="http://www.w3.org/1999/xlink" x="0px" y="0px"
	 viewBox="0 0 20 20" style="enable-background:new 0 0 20 20;" xml:space="preserve">
<style type="text/css">
	.st0{fill:#2f5acf;}
</style>
<path class="st0" d="M9.3,1c0.2-0.7,1.2-0.7,1.4,0l1.9,5.7c0.1,0.3,0.4,0.5,0.7,0.5h6c0.7,0,1,0.9,0.4,1.3L14.8,12
	c-0.3,0.2-0.4,0.5-0.3,0.8l1.9,5.7c0.2,0.7-0.6,1.2-1.1,0.8l-4.9-3.5c-0.3-0.2-0.6-0.2-0.9,0l-4.9,3.5c-0.6,0.4-1.4-0.1-1.1-0.8
	l1.9-5.7c0.1-0.3,0-0.6-0.3-0.8L0.3,8.5C-0.3,8.1,0,7.2,0.7,7.2h6c0.3,0,0.6-0.2,0.7-0.5L9.3,1z"/>
</svg>
